<svg xmlns="http://www.w3.org/2000/svg" width="60" height="60" viewBox="0 0 60 60">
  <g id="service-5" transform="translate(-0.016 -0.149)">
    <g id="Group_203" data-name="Group 203" transform="translate(0.016 0.149)">
      <g id="Group_202" data-name="Group 202">
        <path id="Path_621" data-name="Path 621" d="M315.376,412.144c-.143-.4-.574,0-1,0h-2v-2a1.234,1.234,0,0,0-2,0l-1,2h-1c-.435,0-.865-.414-1,0s-.352,1.745,0,2h1v2c-.136.379-.294.726,0,1,.189.176.752,0,1,0,.139,0-.132.058,0,0l2-1,1,1a3.157,3.157,0,0,0,2,0c.3-.27.13-.621,0-1l-1-2h1C314.707,413.876,315.518,412.545,315.376,412.144Zm-4,2c-.1-.034.108,0,0,0s.1-.032,0,0c.04-.23-.888.2-1,0a10.8,10.8,0,0,0,1-1h0c.086.172-.157.9,0,1C311.277,414.326,311.352,413.936,311.376,414.144Z" transform="translate(-271.427 -362.144)" fill="#a9f7be"/>
        <path id="Path_622" data-name="Path 622" d="M151.28,376.623a1,1,0,0,0-.992-1h-29.75a1,1,0,0,0,0,2h29.75A1,1,0,0,0,151.28,376.623Z" transform="translate(-105.414 -331.623)" fill="#a9f7be"/>
        <path id="Path_623" data-name="Path 623" d="M336.464,211.967v-6a1,1,0,0,0-1-1h-10a1,1,0,0,0-1,1v6a1,1,0,0,0,1,1h10A1,1,0,0,0,336.464,211.967Zm-2-1h-8v-4h8Z" transform="translate(-286.542 -180.967)" fill="#a9f7be"/>
        <path id="Path_624" data-name="Path 624" d="M55.9,366.639l3.982-7a1.007,1.007,0,0,0,0-1c-.178-.31-.641,0-1,0H48.932a1,1,0,0,0-1,1v15H12.1v-15a1,1,0,0,0-1-1H1.145c-.354,0-.817-.31-1,0a1.007,1.007,0,0,0,0,1l3.982,7-3.982,6a1.007,1.007,0,0,0,0,1c.178.31.641,1,1,1H7.118a1,1,0,0,0,0-2H3.136l2.987-6a1.017,1.017,0,0,0,0-1l-2.987-5H10.1v15a1,1,0,0,0,1,1H48.932a1,1,0,0,0,1-1v-15H56.9l-2.987,5a1.017,1.017,0,0,0,0,1l2.987,6H52.914a1,1,0,0,0,0,2h5.973c.354,0,.817-.69,1-1a1.007,1.007,0,0,0,0-1Z" transform="translate(-0.016 -316.639)" fill="#a9f7be"/>
        <path id="Path_625" data-name="Path 625" d="M51.32,36.262a2,2,0,1,0,2-2A1.995,1.995,0,0,0,51.32,36.262Z" transform="translate(-45.186 -30.262)" fill="#a9f7be"/>
        <path id="Path_626" data-name="Path 626" d="M1.145,12.149h53.76a1,1,0,0,0,0-2H2.141v-5a2.992,2.992,0,0,1,2.987-3H54.905a2.992,2.992,0,0,1,2.987,3v34a1,1,0,1,0,1.991,0v-34a4.986,4.986,0,0,0-4.978-5H5.128a4.986,4.986,0,0,0-4.978,5v6A1,1,0,0,0,1.145,12.149Z" transform="translate(-0.016 -0.149)" fill="#a9f7be"/>
        <path id="Path_627" data-name="Path 627" d="M153.756,36.262a2,2,0,1,0,2-2A1.995,1.995,0,0,0,153.756,36.262Z" transform="translate(-135.709 -30.262)" fill="#a9f7be"/>
        <path id="Path_628" data-name="Path 628" d="M102.554,36.262a2,2,0,1,0,2-2A1.995,1.995,0,0,0,102.554,36.262Z" transform="translate(-90.478 -30.262)" fill="#a9f7be"/>
        <path id="Path_629" data-name="Path 629" d="M1.15,145.669a1,1,0,0,0,1-1v-24a1,1,0,1,0-2,0v24A1,1,0,0,0,1.15,145.669Z" transform="translate(-0.016 -105.669)" fill="#a9f7be"/>
        <path id="Path_630" data-name="Path 630" d="M230.037,412.144c-.143-.4-.574,0-1,0h-2v-2a1.234,1.234,0,0,0-2,0l-1,2h-1c-.435,0-.865-.414-1,0s-.352,1.745,0,2h1v2c-.136.379-.294.726,0,1,.189.176.752,0,1,0,.139,0-.132.058,0,0l2-1,1,1a3.157,3.157,0,0,0,2,0c.3-.27.13-.621,0-1l-1-2h1C229.367,413.876,230.178,412.545,230.037,412.144Zm-4,2c-.1-.034.108,0,0,0s.1-.032,0,0c.04-.23-.888.2-1,0a10.8,10.8,0,0,0,1-1h0c.086.172-.157.9,0,1C225.937,414.326,226.012,413.936,226.037,414.144Z" transform="translate(-196.036 -362.144)" fill="#a9f7be"/>
        <path id="Path_631" data-name="Path 631" d="M346.506,138.685a1,1,0,0,0,0-2h-4a1,1,0,0,0,0,2Z" transform="translate(-301.57 -120.685)" fill="#a9f7be"/>
        <path id="Path_632" data-name="Path 632" d="M204.98,205.967v6a1,1,0,0,0,1,1h10a1,1,0,0,0,1-1v-6a1,1,0,0,0-1-1h-10A1,1,0,0,0,204.98,205.967Zm2,1h8v4h-8Z" transform="translate(-180.98 -180.967)" fill="#a9f7be"/>
        <path id="Path_633" data-name="Path 633" d="M278.235,138.685a1,1,0,0,0,0-2h-4a1,1,0,0,0,0,2Z" transform="translate(-241.259 -120.685)" fill="#a9f7be"/>
        <path id="Path_634" data-name="Path 634" d="M342.989,291.289a1,1,0,0,0-1-1h-8a1,1,0,1,0,0,2h8A1,1,0,0,0,342.989,291.289Z" transform="translate(-294.063 -256.289)" fill="#a9f7be"/>
        <path id="Path_635" data-name="Path 635" d="M214.509,290.288a1,1,0,0,0,0,2h8a1,1,0,1,0,0-2Z" transform="translate(-188.509 -256.288)" fill="#a9f7be"/>
        <path id="Path_636" data-name="Path 636" d="M86.5,212.968h10a1,1,0,0,0,1-1v-6a1,1,0,0,0-1-1h-10a1,1,0,0,0-1,1v6A1,1,0,0,0,86.5,212.968Zm1-6h8v4h-8Z" transform="translate(-75.419 -180.968)" fill="#a9f7be"/>
        <path id="Path_637" data-name="Path 637" d="M144.7,412.144c-.143-.4-.574,0-1,0h-2v-2a1.234,1.234,0,0,0-2,0l-1,2h-1c-.435,0-.865-.414-1,0s-.352,1.745,0,2h1v2c-.136.379-.294.726,0,1,.189.176.752,0,1,0,.139,0-.132.058,0,0l2-1,1,1a3.157,3.157,0,0,0,2,0c.3-.27.13-.621,0-1l-1-2h2C145.026,413.876,144.837,412.545,144.7,412.144Zm-4,2c-.1-.034.108,0,0,0s.1-.032,0,0c.04-.23-.888.2-1,0a10.8,10.8,0,0,0,1-1h0c.086.172-.157.9,0,1C140.6,414.326,140.671,413.936,140.7,414.144Z" transform="translate(-120.644 -362.144)" fill="#a9f7be"/>
        <path id="Path_638" data-name="Path 638" d="M95.028,292.289h8a1,1,0,1,0,0-2h-8a1,1,0,0,0,0,2Z" transform="translate(-82.953 -256.289)" fill="#a9f7be"/>
        <path id="Path_639" data-name="Path 639" d="M415.811,137.685a1,1,0,0,0-1-1h-4a1,1,0,0,0,0,2h4A1,1,0,0,0,415.811,137.685Z" transform="translate(-361.944 -120.685)" fill="#a9f7be"/>
        <path id="Path_640" data-name="Path 640" d="M61.32,137.685a1,1,0,0,0-1-1h-8a1,1,0,1,0,0,2h8A1,1,0,0,0,61.32,137.685Z" transform="translate(-45.186 -120.685)" fill="#a9f7be"/>
      </g>
    </g>
  </g>
</svg>
