<svg xmlns="http://www.w3.org/2000/svg" width="60" height="60" viewBox="0 0 60 60">
  <g id="service-1" transform="translate(0 -6.19)">
    <path id="Path_543" data-name="Path 543" d="M122.65,89.469a3,3,0,1,0-3-3c0,.679.62.5,1,1l-5,7a3.451,3.451,0,0,0-1,0,3.072,3.072,0,0,0-2,1l-3-2a7.581,7.581,0,0,0,0-1,3,3,0,0,0-6,0,7.582,7.582,0,0,0,0,1l-3,2a6.1,6.1,0,0,0-3-1,3,3,0,1,0,3,3c0-.217.044.2,0,0l4-2a2.5,2.5,0,0,0,4,0l3,2c-.044.2,0-.217,0,0a3,3,0,0,0,6,0,4.065,4.065,0,0,0-1-2l5-7C121.945,88.566,122.322,89.469,122.65,89.469Zm0-5a3.012,3.012,0,0,1,2,2c0,.665-1.335,1-2,1a.885.885,0,0,1-1-1C121.65,85.8,121.985,84.469,122.65,84.469Zm-25,14a1,1,0,0,1,0-2c.665,0,2,.335,2,1S98.315,98.469,97.65,98.469Zm9-4c-.665,0-1-1.335-1-2a1,1,0,0,1,2,0C107.65,93.134,107.315,94.469,106.65,94.469Zm8,4a1,1,0,1,1,1-1A.885.885,0,0,1,114.65,98.469Z" transform="translate(-84.36 -67.507)" fill="#b18cf9"/>
    <path id="Path_544" data-name="Path 544" d="M50,79.983H3A1.24,1.24,0,0,1,2,79V42.649a1.24,1.24,0,0,1,1-.982H7A.983.983,0,1,0,7,39.7H3a3.353,3.353,0,0,0-3,2.947V79a3.353,3.353,0,0,0,3,2.947H9v1.965a1.947,1.947,0,0,0,2,1.965h9l-4,7.86c-.228.437-.445.759,0,.982.132.066-.139.982,0,.982.329,0,.84-.675,1-.982l5-8.842H32l5,8.842c.16.307-.329.982,0,.982.139,0,.868-.916,1-.982.445-.224.228-.546,0-.982l-4-7.86h9a1.947,1.947,0,0,0,2-1.965V81.948h5a.983.983,0,1,0,0-1.965Zm-7,3.93c0,.134.136,0,0,0H11c-.136,0,0,.134,0,0V81.948H43Z" transform="translate(0 -29.512)" fill="#b18cf9"/>
    <path id="Path_545" data-name="Path 545" d="M79.533,12.19h40.073a1.237,1.237,0,0,1,.977,1v9c0,.5.489,0,.977,0s.977.5.977,0v-9a3.345,3.345,0,0,0-2.932-3h-18.57v-1c0-1.251-.732-3-1.955-3H93.216c-1.223,0-1.955,1.749-1.955,3v1H79.533c-.488,0,0,.5,0,1S79.045,12.19,79.533,12.19Zm13.683-3c0-.254-.248-1,0-1H99.08c.248,0,0,.746,0,1v1H93.216Z" transform="translate(-70.538)" fill="#b18cf9"/>
    <path id="Path_546" data-name="Path 546" d="M98.659,267.738a1.076,1.076,0,0,0-1,1v8a1.076,1.076,0,0,0,1,1h3a1.076,1.076,0,0,0,1-1v-8a1.076,1.076,0,0,0-1-1Zm2,8h-1v-6h1Z" transform="translate(-86.08 -230.175)" fill="#b18cf9"/>
    <path id="Path_547" data-name="Path 547" d="M167.194,229.031a1.076,1.076,0,0,0-1,1v13a1.076,1.076,0,0,0,1,1h4a1.076,1.076,0,0,0,1-1v-13a1.076,1.076,0,0,0-1-1Zm3,13h-2v-11h2Z" transform="translate(-146.909 -196.428)" fill="#b18cf9"/>
    <path id="Path_548" data-name="Path 548" d="M235.731,267.738a1.076,1.076,0,0,0-1,1v8a1.076,1.076,0,0,0,1,1h4a1.076,1.076,0,0,0,1-1v-8a1.076,1.076,0,0,0-1-1Zm3,8h-2v-6h2Z" transform="translate(-207.731 -230.175)" fill="#b18cf9"/>
    <path id="Path_549" data-name="Path 549" d="M305.268,311.658a1.076,1.076,0,0,0-1,1v3a1.076,1.076,0,0,0,1,1h3a1,1,0,0,0,0-2h-3v-2C305.268,312.158,305.767,311.658,305.268,311.658Z" transform="translate(-268.566 -269.129)" fill="#b18cf9"/>
    <path id="Path_550" data-name="Path 550" d="M320.9,173.478l-5-9a12.114,12.114,0,0,0,3-5,11.768,11.768,0,0,0-1-9,11.566,11.566,0,0,0-16-4c-5.644,3.258-8.258,10.356-5,16a10.668,10.668,0,0,0,7,5c1.018.273,1.973,1,3,1,.9,0,2.128-.8,3-1l5,9a3.768,3.768,0,0,0,3,2c.583,0,1.46.312,2,0a3.773,3.773,0,0,0,2-3C321.9,174.878,321.2,174,320.9,173.478Zm-16-8c-2.583-.692-4.663-1.684-6-4-2.76-4.78-1.78-11.24,3-14a9.646,9.646,0,0,1,5-1,10.525,10.525,0,0,1,9,5,8.528,8.528,0,0,1,1,7,10.327,10.327,0,0,1-5,6A8.529,8.529,0,0,1,304.9,165.478Zm14,11c-.778.449-1.551-.222-2-1l-5-8c.5-.2.524-.725,1-1s1.573-.669,2-1l5,9c.143.249,0,.717,0,1C319.9,176.059,319.4,176.188,318.9,176.478Z" transform="translate(-261.901 -121.925)" fill="#b18cf9"/>
    <path id="Path_551" data-name="Path 551" d="M339.441,182.018c.638-2.056-.086-4.059-1-6-.213-.452-.548-.213-1,0s-.213.548,0,1a7.029,7.029,0,0,1,0,5,6.922,6.922,0,0,1-3,4c-1.568.905-3.252.468-5,0a6.275,6.275,0,0,1-4-3c-1.868-3.236-1.236-7.132,2-9,2.366-1.366,5.821-1.648,8,0,.4.3.7.4,1,0s.4-.7,0-1c-2.76-2.088-7-2.73-10-1-1.986,1.147-3.406,3.785-4,6a7.359,7.359,0,0,0,1,6,8.117,8.117,0,0,0,5,4,6.764,6.764,0,0,0,2,0,11.24,11.24,0,0,0,5-1A8.949,8.949,0,0,0,339.441,182.018Z" transform="translate(-285.441 -145.284)" fill="#b18cf9"/>
  </g>
</svg>
