<svg xmlns="http://www.w3.org/2000/svg" width="60" height="60" viewBox="0 0 60 60">
  <g id="service-2" transform="translate(0.217 0.255)">
    <g id="Group_164" data-name="Group 164" transform="translate(-0.217 -0.255)">
      <path id="Path_507" data-name="Path 507" d="M46.712,31.852l-6.956-7.926a14.5,14.5,0,0,0,3.975-8.916h9.937V16a5.076,5.076,0,0,0-3.975,4.954,4.968,4.968,0,0,0,9.937,0A5.07,5.07,0,0,0,55.655,16V14.019a.993.993,0,0,0-.994-.991H43.731A15.1,15.1,0,0,0,40.75,5.1l.994-.991H53.668a3.267,3.267,0,0,0,3.975,1.981A3.253,3.253,0,0,0,59.63,2.131,3.268,3.268,0,0,0,55.655.15a3.534,3.534,0,0,0-1.987,1.981H41.744c-.263,0-.807-.186-.994,0l-.994,1.981c-5.52-5.3-14.557-5.5-19.874,0a14.7,14.7,0,0,0-3.975,8.916H7.959L3.984,5.1C5.436,4.341,6.735,2.587,5.971,1.14A2.854,2.854,0,0,0,2,.15C.545.911-.755,2.665.009,4.112.411,4.873,1.157,5.9,2,6.094l3.975,7.926c.16.357.6.991.994.991h8.943a14.807,14.807,0,0,0,3.975,8.916L10.94,31.852A9.3,9.3,0,0,0,.009,39.778C-.8,45.184,3.53,50.857,8.952,51.667c.164.025-.165-.016,0,0V56.62a.993.993,0,0,0,.994.991h8.943a3.141,3.141,0,1,0,1.987-3.963,3.534,3.534,0,0,0-1.987,1.981H10.94V51.667a10.007,10.007,0,0,0,8.943-10.9,9.234,9.234,0,0,0-5.962-7.926l6.956-7.926a15.166,15.166,0,0,0,17.886,0l4.968,6.935a14.012,14.012,0,1,0,15.9,11.889A13.489,13.489,0,0,0,46.712,31.852Zm10.93-10.9a2.981,2.981,0,1,1-2.981-2.972A2.977,2.977,0,0,1,57.642,20.954ZM56.649,2.131a.991.991,0,1,1-.994.991A.993.993,0,0,1,56.649,2.131ZM2.99,4.112a.991.991,0,1,1,.994-.991A.993.993,0,0,1,2.99,4.112ZM21.87,55.629a.991.991,0,1,1-.994.991A.993.993,0,0,1,21.87,55.629Zm-7.949-6.935a7.905,7.905,0,0,1-7.949,0V46.713a3.975,3.975,0,0,1,7.949,0ZM7.959,38.787a1.987,1.987,0,1,1,1.987,1.981A1.985,1.985,0,0,1,7.959,38.787Zm7.949-1.981a7.167,7.167,0,0,1,0,9.907h0a5.462,5.462,0,0,0-2.981-4.954,4.378,4.378,0,0,0,0-5.944,4.411,4.411,0,0,0-5.962,0,4.568,4.568,0,0,0,0,5.944,5.463,5.463,0,0,0-2.981,4.954h0c-2.9-3.282-2.3-8,.994-10.9S13.005,33.524,15.908,36.806ZM36.775,23.927a11.872,11.872,0,0,1-13.911,0V20.954a2.79,2.79,0,0,1,2.981-2.972h2.981l-1.987,2.972c-.148.368-.281,1.7,0,1.981l1.987,1.981a1.848,1.848,0,0,0,1.987,0L32.8,22.936c.281-.28.148-1.613,0-1.981l-1.987-2.972h2.981a2.79,2.79,0,0,1,2.981,2.972ZM29.82,7.085c-.037.062.023.922,0,.991-.5,1.5-3.221,1.816-4.968,1.981C25.118,6.738,26.741,5.1,29.82,5.1c2.819,0,4.524,1.19,4.968,3.963L31.807,7.085C31.336,6.8,30.1,6.616,29.82,7.085Zm.994,1.981,3.975,1.981C34.39,13.472,31.344,16,29.82,16a6.4,6.4,0,0,1-4.968-3.963A9.114,9.114,0,0,0,30.813,9.066Zm0,12.879H28.826l.994-1.981ZM33.794,16a7.209,7.209,0,0,0,2.981-4.954c0-6.548-3.784-7.926-6.956-7.926S22.864,4.5,22.864,11.047A7.2,7.2,0,0,0,25.845,16c-2.633.323-4.972,2.309-4.968,4.954v.991a11.95,11.95,0,1,1,17.886,0v-.991C38.768,18.309,36.428,16.324,33.794,16Zm18.88,39.628a11.872,11.872,0,0,1-13.911,0V52.657a2.79,2.79,0,0,1,2.981-2.972h2.981l-1.987,2.972c-.148.368-.281,1.7,0,1.981l1.987,1.981a1.848,1.848,0,0,0,1.987,0L48.7,54.639c.281-.28.148-1.613,0-1.981l-1.987-2.972h2.981a2.79,2.79,0,0,1,2.981,2.972ZM46.712,40.769h0l3.975,1.981c-.4,2.425-3.444,4.954-4.968,4.954a6.4,6.4,0,0,1-4.968-3.963A9.115,9.115,0,0,0,46.712,40.769Zm-5.962.991h0c.266-3.318,1.889-4.954,4.968-4.954,2.819,0,4.524,1.19,4.968,3.963l-2.981-1.981c-.47-.281-1.705-.469-1.987,0-.037.062.023.922,0,.991C45.216,41.28,42.5,41.594,40.75,41.759Zm5.962,11.889H44.725l.994-1.981Zm7.949,0v-.991c.005-2.646-2.334-4.63-4.968-4.954a7.209,7.209,0,0,0,2.981-4.954c0-6.548-3.784-7.926-6.956-7.926S38.763,36.2,38.763,42.75A7.2,7.2,0,0,0,41.744,47.7c-2.633.323-4.972,2.309-4.968,4.954v.991a11.924,11.924,0,1,1,17.886,0Z" transform="translate(0.217 0.255)" fill="#ffd874"/>
    </g>
  </g>
</svg>
