<svg xmlns="http://www.w3.org/2000/svg" width="56" height="60" viewBox="0 0 56 60">
  <g id="service-6" transform="translate(-0.356 -0.057)">
    <path id="Path_641" data-name="Path 641" d="M211.761,124.522h3.522a1.761,1.761,0,0,0,0-3.522h-3.522a1.761,1.761,0,0,0,0,3.522Zm0,0" transform="translate(-185.344 -106.822)" fill="#f97ae0"/>
    <path id="Path_642" data-name="Path 642" d="M211.761,184.522h3.522a1.761,1.761,0,1,0,0-3.522h-3.522a1.761,1.761,0,1,0,0,3.522Zm0,0" transform="translate(-185.344 -159.792)" fill="#f97ae0"/>
    <path id="Path_643" data-name="Path 643" d="M215.283,241h-3.522a1.761,1.761,0,1,0,0,3.522h3.522a1.761,1.761,0,1,0,0-3.522Zm0,0" transform="translate(-185.344 -212.761)" fill="#f97ae0"/>
    <path id="Path_644" data-name="Path 644" d="M361.761,124.522h3.522a1.761,1.761,0,1,0,0-3.522h-3.522a1.761,1.761,0,1,0,0,3.522Zm0,0" transform="translate(-317.733 -106.822)" fill="#f97ae0"/>
    <path id="Path_645" data-name="Path 645" d="M361.761,184.522h3.522a1.761,1.761,0,1,0,0-3.522h-3.522a1.761,1.761,0,1,0,0,3.522Zm0,0" transform="translate(-317.733 -159.792)" fill="#f97ae0"/>
    <path id="Path_646" data-name="Path 646" d="M365.283,241h-3.522a1.761,1.761,0,1,0,0,3.522h3.522a1.761,1.761,0,1,0,0-3.522Zm0,0" transform="translate(-317.733 -212.761)" fill="#f97ae0"/>
    <path id="Path_647" data-name="Path 647" d="M61.761,124.522h3.522a1.761,1.761,0,0,0,0-3.522H61.761a1.761,1.761,0,1,0,0,3.522Zm0,0" transform="translate(-52.955 -106.822)" fill="#f97ae0"/>
    <path id="Path_648" data-name="Path 648" d="M5.356,60.057h46a4.821,4.821,0,0,0,5-5v-50a4.821,4.821,0,0,0-5-5h-11a3.77,3.77,0,0,0-3,1c-.936-.837-2.648-1-4-1h-10c-1.352,0-3.064.163-4,1-.936-.837-2.648-1-4-1h-10a4.821,4.821,0,0,0-5,5v50A4.821,4.821,0,0,0,5.356,60.057Zm47-18-14-3v-29h14Zm-17-4-14-2v-26h14Zm-18-14-14-3v-11h14Zm35,31c0,.969-.029,1-1,1h-46c-.971,0-2-.031-2-1v-30l14,3v9c0,.838,1.177,1.835,2,2,1.827.364,31.27,5.655,33,6Zm-12-52h11c.971,0,1,1.031,1,2v2h-14v-2A2.2,2.2,0,0,1,40.356,3.057Zm-17,0h10a2.2,2.2,0,0,1,2,2v2h-14v-2A2.2,2.2,0,0,1,23.356,3.057Zm-18,0h10a2.2,2.2,0,0,1,2,2v2h-14v-2A2.2,2.2,0,0,1,5.356,3.057Zm0,0" fill="#f97ae0"/>
    <path id="Path_649" data-name="Path 649" d="M72.328,361H61.761A1.761,1.761,0,0,0,60,362.761v7.162a1.761,1.761,0,0,0,1.761,1.761H72.328a1.761,1.761,0,0,0,1.761-1.761v-7.162A1.761,1.761,0,0,0,72.328,361Zm-1.761,7.162H63.522v-3.64h7.045Zm0,0" transform="translate(-52.955 -318.729)" fill="#f97ae0"/>
  </g>
</svg>
