<svg xmlns="http://www.w3.org/2000/svg" width="16" height="16" viewBox="0 0 16 16">
  <g id="sw-1" transform="translate(-0.131 -0.137)">
    <g id="Group_173" data-name="Group 173" transform="translate(0.131 0.137)">
      <g id="Group_172" data-name="Group 172" transform="translate(0 0)">
        <path id="Path_606" data-name="Path 606" d="M14.8.137H5.2c-.173,0-.533.094-.533.267S5.025.67,5.2.67h8.533a1.8,1.8,0,0,0-.267.8V14.8a.9.9,0,0,1-.8.8c-.379,0-.533-.421-.533-.8V13.737A1.35,1.35,0,0,0,10.8,12.4H4.4V6.8a.24.24,0,0,0-.267-.267.24.24,0,0,0-.267.267v5.6h-2.4A1.35,1.35,0,0,0,.131,13.737V15.87a.24.24,0,0,0,.267.267H12.664A1.35,1.35,0,0,0,14,14.8V4.67h1.867c.173,0,.267-.361.267-.533V1.47A1.35,1.35,0,0,0,14.8.137Zm-5.333,13.6V15.6H.664v-.8H3.331a.267.267,0,1,0,0-.533H.664v-.533c0-.379.421-.533.8-.533H9.731C9.607,13.4,9.464,13.485,9.464,13.737ZM10,15.6V13.737c0-.379.421-.533.8-.533s.8.154.8.533V14.8c0,.252-.124.6,0,.8ZM15.6,3.87H14V1.47a.9.9,0,0,1,.8-.8.9.9,0,0,1,.8.8Z" transform="translate(-0.131 -0.137)" fill="#5e5e5e"/>
      </g>
    </g>
    <g id="Group_175" data-name="Group 175" transform="translate(5.778 1.717)">
      <g id="Group_174" data-name="Group 174" transform="translate(0 0)">
        <path id="Path_607" data-name="Path 607" d="M185.271,53.781h-5.793a.236.236,0,0,0-.263.263v2.37a.236.236,0,0,0,.263.263h5.793a.236.236,0,0,0,.263-.263v-2.37A.236.236,0,0,0,185.271,53.781Zm-.263,2.37h-5.266v-1.58h5.266Z" transform="translate(-179.215 -53.781)" fill="#5e5e5e"/>
      </g>
    </g>
    <g id="Group_177" data-name="Group 177" transform="translate(5.778 5.472)">
      <g id="Group_176" data-name="Group 176" transform="translate(0 0)">
        <path id="Path_608" data-name="Path 608" d="M185.743,170.034H179.95a.263.263,0,0,0,0,.527h5.793a.263.263,0,1,0,0-.527Z" transform="translate(-179.687 -170.034)" fill="#5e5e5e"/>
      </g>
    </g>
    <g id="Group_179" data-name="Group 179" transform="translate(11.577 8.381)">
      <g id="Group_178" data-name="Group 178" transform="translate(0 0)">
        <path id="Path_609" data-name="Path 609" d="M367.579,262.36c-.058-.058-.182,0-.263,0s-.206-.058-.263,0,0,.182,0,.263-.058.206,0,.263.182,0,.263,0,.206.058.263,0,0-.182,0-.263S367.637,262.418,367.579,262.36Z" transform="translate(-367.027 -262.334)" fill="#5e5e5e"/>
      </g>
    </g>
    <g id="Group_181" data-name="Group 181" transform="translate(5.763 8.407)">
      <g id="Group_180" data-name="Group 180" transform="translate(0 0)">
        <path id="Path_610" data-name="Path 610" d="M184.144,262.432h-4.213a.263.263,0,0,0,0,.527h4.213c.171,0,.527-.092.527-.263S184.315,262.432,184.144,262.432Z" transform="translate(-179.668 -262.432)" fill="#5e5e5e"/>
      </g>
    </g>
    <g id="Group_183" data-name="Group 183" transform="translate(5.778 6.808)">
      <g id="Group_182" data-name="Group 182" transform="translate(0 0)">
        <path id="Path_611" data-name="Path 611" d="M185.743,215.731H179.95a.236.236,0,0,0-.263.263c0,.171.092.527.263.527h5.793c.171,0,.263-.355.263-.527A.236.236,0,0,0,185.743,215.731Z" transform="translate(-179.687 -215.731)" fill="#5e5e5e"/>
      </g>
    </g>
    <g id="Group_185" data-name="Group 185" transform="translate(5.745 11.077)">
      <g id="Group_184" data-name="Group 184" transform="translate(0 0)">
        <path id="Path_612" data-name="Path 612" d="M182.015,353.83h-2.107c-.171,0-.263.355-.263.527a.236.236,0,0,0,.263.263h2.107a.236.236,0,0,0,.263-.263C182.278,354.186,182.186,353.83,182.015,353.83Z" transform="translate(-179.645 -353.83)" fill="#5e5e5e"/>
      </g>
    </g>
    <g id="Group_187" data-name="Group 187" transform="translate(5.745 9.741)">
      <g id="Group_186" data-name="Group 186" transform="translate(0 0)">
        <path id="Path_613" data-name="Path 613" d="M182.015,308.128h-2.107a.263.263,0,0,0,0,.527h2.107a.263.263,0,1,0,0-.527Z" transform="translate(-179.645 -308.128)" fill="#5e5e5e"/>
      </g>
    </g>
    <g id="Group_189" data-name="Group 189" transform="translate(9.487 11.077)">
      <g id="Group_188" data-name="Group 188" transform="translate(0 0)">
        <path id="Path_614" data-name="Path 614" d="M302.372,353.83h-2.107c-.171,0-.263.355-.263.527a.236.236,0,0,0,.263.263h2.107a.236.236,0,0,0,.263-.263C302.636,354.186,302.543,353.83,302.372,353.83Z" transform="translate(-300.002 -353.83)" fill="#5e5e5e"/>
      </g>
    </g>
    <g id="Group_191" data-name="Group 191" transform="translate(9.487 9.741)">
      <g id="Group_190" data-name="Group 190" transform="translate(0 0)">
        <path id="Path_615" data-name="Path 615" d="M302.372,308.128h-2.107a.263.263,0,0,0,0,.527h2.107a.263.263,0,0,0,0-.527Z" transform="translate(-300.002 -308.128)" fill="#5e5e5e"/>
      </g>
    </g>
    <g id="Group_193" data-name="Group 193" transform="translate(0.131 1.717)">
      <g id="Group_192" data-name="Group 192" transform="translate(0 0)">
        <path id="Path_616" data-name="Path 616" d="M2.512,53.774a2.429,2.429,0,0,0-2.37,2.37,2.175,2.175,0,0,0,1.317,2.107v4.213c0,.1.182.205.263.263l.527.527c.053.038.2,0,.263,0,.022,0-.022,0,0,0,.085-.019.22-.188.263-.263L3.3,62.2a.853.853,0,0,0,0-.263V58.251a2.279,2.279,0,0,0,1.317-2.107A2.211,2.211,0,0,0,2.512,53.774Zm0,1.317a.263.263,0,1,1-.263.263A.257.257,0,0,1,2.512,55.091Zm.263,4.476a.263.263,0,1,0,0,.527v.527a.263.263,0,1,0,0,.527v.79l-.263.527L2.249,62.2V58.514c.08.008.181,0,.263,0a1.624,1.624,0,0,0,.263,0Zm-.263-1.843a1.753,1.753,0,0,1-1.843-1.58,1.627,1.627,0,0,1,1.317-1.58.86.86,0,0,0-.527.79c0,.492.561.79,1.053.79a.728.728,0,0,0,.79-.79.86.86,0,0,0-.527-.79,1.627,1.627,0,0,1,1.317,1.58A1.52,1.52,0,0,1,2.512,57.724Z" transform="translate(-0.142 -53.774)" fill="#5e5e5e"/>
      </g>
    </g>
    <g id="Group_195" data-name="Group 195" transform="translate(1.974 0.137)">
      <g id="Group_194" data-name="Group 194" transform="translate(0 0)">
        <path id="Path_617" data-name="Path 617" d="M64.137.137c-.171,0-.527.092-.527.263v.79c0,.171.356.263.527.263A.236.236,0,0,0,64.4,1.19V.4A.236.236,0,0,0,64.137.137Z" transform="translate(-63.61 -0.137)" fill="#5e5e5e"/>
      </g>
    </g>
    <g id="Group_197" data-name="Group 197" transform="translate(0.567 0.572)">
      <g id="Group_196" data-name="Group 196" transform="translate(0 0)">
        <path id="Path_618" data-name="Path 618" d="M13.749,16.086l-.527-.527c-.121-.121-.142-.121-.263,0a.427.427,0,0,0,0,.527l.527.527c.061.061.184,0,.263,0s-.061.061,0,0A.427.427,0,0,0,13.749,16.086Z" transform="translate(-12.868 -15.468)" fill="#5e5e5e"/>
      </g>
    </g>
    <g id="Group_199" data-name="Group 199" transform="translate(3.241 0.572)">
      <g id="Group_198" data-name="Group 198" transform="translate(0 0)">
        <path id="Path_619" data-name="Path 619" d="M99.161,15.568c-.121-.121-.142-.121-.263,0l-.527.527a.427.427,0,0,0,0,.527c.061.061.184,0,.263,0s-.061.061,0,0l.527-.527A.427.427,0,0,0,99.161,15.568Z" transform="translate(-98.28 -15.477)" fill="#5e5e5e"/>
      </g>
    </g>
    <g id="Group_201" data-name="Group 201" transform="translate(4.373 14.268)">
      <g id="Group_200" data-name="Group 200" transform="translate(0 0)">
        <path id="Path_620" data-name="Path 620" d="M135.184,451.231c-.058-.058-.182,0-.263,0s-.206-.058-.263,0,0,.182,0,.263-.058.206,0,.263.182,0,.263,0,.206.058.263,0,0-.182,0-.263S135.242,451.289,135.184,451.231Z" transform="translate(-134.632 -451.206)" fill="#5e5e5e"/>
      </g>
    </g>
  </g>
</svg>
