<svg xmlns="http://www.w3.org/2000/svg" width="16" height="15" viewBox="0 0 16 15">
  <path id="sw-2" d="M12.412,8l-1.73-2.065a3.389,3.389,0,0,0,1.047-2.189h2.679v.275a1.274,1.274,0,0,0-1.066,1.224,1.336,1.336,0,0,0,2.666,0,1.272,1.272,0,0,0-1.066-1.224V3.5a.259.259,0,0,0-.267-.25H11.728a3.353,3.353,0,0,0-.781-1.9L11.319,1h3.137a.814.814,0,0,0,1.021.457A.738.738,0,0,0,15.965.5a.815.815,0,0,0-1.02-.457A.776.776,0,0,0,14.457.5H11.209a.276.276,0,0,0-.188.073l-.43.4a3.9,3.9,0,0,0-5.265.093A3.394,3.394,0,0,0,4.292,3.249H2.053L1.181,1.411A.725.725,0,0,0,1.516.4.824.824,0,0,0,.439.089.725.725,0,0,0,.1,1.1a.792.792,0,0,0,.524.38L1.636,3.6a.268.268,0,0,0,.244.148H4.292A3.386,3.386,0,0,0,5.32,5.917L3.07,8.027a2.644,2.644,0,0,0-3.029,2.1,2.526,2.526,0,0,0,2.24,2.84q.066.009.132.015v1.262a.259.259,0,0,0,.267.25H5.127a.814.814,0,0,0,1.021.457.738.738,0,0,0,.487-.957.815.815,0,0,0-1.02-.457.776.776,0,0,0-.487.457H2.945V12.982a2.545,2.545,0,0,0,2.387-2.733A2.524,2.524,0,0,0,3.665,8.176L5.718,6.252a3.9,3.9,0,0,0,4.563.017L11.76,8.034a3.545,3.545,0,0,0-3.182,3.95,3.7,3.7,0,0,0,4.213,2.983,3.545,3.545,0,0,0,3.182-3.95A3.653,3.653,0,0,0,12.412,8Zm3.062-2.755a.8.8,0,1,1-.8-.75A.776.776,0,0,1,15.474,5.248ZM15.207.5a.259.259,0,0,1,.267.25.267.267,0,0,1-.533,0A.259.259,0,0,1,15.207.5ZM.813,1A.259.259,0,0,1,.546.75.259.259,0,0,1,.813.5.259.259,0,0,1,1.08.75.259.259,0,0,1,.813,1ZM5.878,13.994a.25.25,0,1,1-.267.25A.259.259,0,0,1,5.878,13.994Zm-2.132-1.77a2.237,2.237,0,0,1-2.132,0v-.479a1.035,1.035,0,0,1,1.066-1,1.035,1.035,0,0,1,1.066,1Zm-1.6-2.478a.517.517,0,0,1,.533-.5.5.5,0,1,1,0,1A.517.517,0,0,1,2.146,9.746Zm2.132-.577a1.906,1.906,0,0,1,0,2.645v-.068a1.488,1.488,0,0,0-.828-1.313.956.956,0,0,0-.035-1.413,1.117,1.117,0,0,0-1.508.033.955.955,0,0,0,0,1.38,1.487,1.487,0,0,0-.828,1.313v.068a1.913,1.913,0,0,1,.189-2.822A2.233,2.233,0,0,1,4.278,9.169Zm5.6-3.24a3.349,3.349,0,0,1-3.732,0V5.323a.853.853,0,0,1,.88-.825h.592L7.229,5.4a.239.239,0,0,0,.059.27l.533.5a.279.279,0,0,0,.377,0l.533-.5A.239.239,0,0,0,8.79,5.4L8.4,4.5H9a.853.853,0,0,1,.88.825v.606ZM8.048,1.871a.242.242,0,0,0-.024.049c-.135.379-.863.523-1.332.565A1.176,1.176,0,0,1,8.01,1.25,1.144,1.144,0,0,1,9.3,2.285l-.888-.5A.277.277,0,0,0,8.048,1.871Zm.329.477.953.536A1.62,1.62,0,0,1,8.01,4a1.656,1.656,0,0,1-1.3-1.013A2.509,2.509,0,0,0,8.378,2.348ZM8.23,5.438l-.22.207-.22-.207.22-.517ZM9.173,4.01a1.7,1.7,0,0,0,.7-1.261c0-1.652-1.015-2-1.866-2s-1.866.347-1.866,2a1.7,1.7,0,0,0,.7,1.262A1.353,1.353,0,0,0,5.611,5.323v.152a2.87,2.87,0,0,1,.283-4.232,3.35,3.35,0,0,1,4.515.266,2.86,2.86,0,0,1,0,3.967V5.323A1.353,1.353,0,0,0,9.173,4.01Zm4.968,9.915a3.349,3.349,0,0,1-3.732,0V13.32a.853.853,0,0,1,.88-.825h.592l-.387.907a.239.239,0,0,0,.059.27l.533.5a.279.279,0,0,0,.377,0l.533-.5a.239.239,0,0,0,.059-.27l-.387-.907h.593a.853.853,0,0,1,.88.825Zm-1.5-3.581h0l.953.536A1.62,1.62,0,0,1,12.275,12a1.656,1.656,0,0,1-1.3-1.013A2.509,2.509,0,0,0,12.643,10.344Zm-1.686.137h0a1.176,1.176,0,0,1,1.318-1.235,1.144,1.144,0,0,1,1.292,1.035l-.888-.5a.277.277,0,0,0-.366.086.242.242,0,0,0-.024.049C12.154,10.3,11.426,10.44,10.957,10.481ZM12.5,13.434l-.22.207-.22-.207.22-.517Zm2.179.038V13.32a1.353,1.353,0,0,0-1.236-1.313,1.7,1.7,0,0,0,.7-1.261c0-1.652-1.015-2-1.866-2s-1.866.347-1.866,2a1.7,1.7,0,0,0,.7,1.262A1.353,1.353,0,0,0,9.876,13.32v.152a2.868,2.868,0,0,1,.29-4.23,3.348,3.348,0,0,1,4.512.272,2.854,2.854,0,0,1,0,3.958Z" transform="translate(-0.011 0)" fill="#5e5e5e"/>
</svg>
