<svg xmlns="http://www.w3.org/2000/svg" width="18" height="18" viewBox="0 0 18 18">
  <g id="sw-4" transform="translate(0 -6.19)">
    <path id="Path_543" data-name="Path 543" d="M103.05,85.269a.9.9,0,1,0-.9-.9c0,.2.186.149.3.3l-1.5,2.1a1.035,1.035,0,0,0-.3,0,.922.922,0,0,0-.6.3l-.9-.6a2.274,2.274,0,0,0,0-.3.9.9,0,0,0-1.8,0,2.275,2.275,0,0,0,0,.3l-.9.6a1.83,1.83,0,0,0-.9-.3.9.9,0,1,0,.9.9c0-.065.013.061,0,0l1.2-.6a.75.75,0,0,0,1.2,0l.9.6c-.013.061,0-.065,0,0a.9.9,0,0,0,1.8,0,1.22,1.22,0,0,0-.3-.6l1.5-2.1C102.839,85,102.952,85.269,103.05,85.269Zm0-1.5a.9.9,0,0,1,.6.6c0,.2-.4.3-.6.3a.266.266,0,0,1-.3-.3C102.75,84.17,102.85,83.769,103.05,83.769Zm-7.5,4.2a.3.3,0,1,1,0-.6c.2,0,.6.1.6.3S95.749,87.969,95.55,87.969Zm2.7-1.2c-.2,0-.3-.4-.3-.6a.3.3,0,1,1,.6,0C98.55,86.369,98.449,86.769,98.25,86.769Zm2.4,1.2a.3.3,0,1,1,.3-.3A.266.266,0,0,1,100.65,87.969Z" transform="translate(-91.563 -74.347)" fill="#5e5e5e"/>
    <path id="Path_544" data-name="Path 544" d="M15,51.786H.9a.372.372,0,0,1-.3-.295V40.586a.372.372,0,0,1,.3-.295H2.1a.295.295,0,1,0,0-.589H.9a1.006,1.006,0,0,0-.9.884V51.492a1.006,1.006,0,0,0,.9.884H2.7v.589a.584.584,0,0,0,.6.589H6L4.8,55.913c-.068.131-.133.228,0,.295.04.02-.042.295,0,.295.1,0,.252-.2.3-.295l1.5-2.653h3l1.5,2.653c.048.092-.1.295,0,.295.042,0,.26-.275.3-.295.133-.067.068-.164,0-.295l-1.2-2.358h2.7a.584.584,0,0,0,.6-.589v-.589H15a.295.295,0,1,0,0-.589Zm-2.1,1.179c0,.04.041,0,0,0H3.3c-.041,0,0,.04,0,0v-.589h9.6Z" transform="translate(0 -32.312)" fill="#5e5e5e"/>
    <path id="Path_545" data-name="Path 545" d="M79.381,7.99H91.4a.371.371,0,0,1,.293.3v2.7c0,.15.147,0,.293,0s.293.15.293,0V8.29a1,1,0,0,0-.88-.9H85.832v-.3c0-.375-.22-.9-.586-.9H83.486c-.367,0-.586.525-.586.9v.3H79.381c-.146,0,0,.15,0,.3S79.234,7.99,79.381,7.99Zm4.105-.9c0-.076-.074-.3,0-.3h1.759c.074,0,0,.224,0,.3v.3H83.486Z" transform="translate(-76.682)" fill="#5e5e5e"/>
    <path id="Path_546" data-name="Path 546" d="M97.958,267.738a.323.323,0,0,0-.3.3v2.4a.323.323,0,0,0,.3.3h.9a.323.323,0,0,0,.3-.3v-2.4a.323.323,0,0,0-.3-.3Zm.6,2.4h-.3v-1.8h.3Z" transform="translate(-94.185 -252.136)" fill="#5e5e5e"/>
    <path id="Path_547" data-name="Path 547" d="M166.494,229.031a.323.323,0,0,0-.3.3v3.9a.323.323,0,0,0,.3.3h1.2a.323.323,0,0,0,.3-.3v-3.9a.323.323,0,0,0-.3-.3Zm.9,3.9h-.6v-3.3h.6Z" transform="translate(-160.409 -214.917)" fill="#5e5e5e"/>
    <path id="Path_548" data-name="Path 548" d="M235.031,267.738a.323.323,0,0,0-.3.3v2.4a.323.323,0,0,0,.3.3h1.2a.323.323,0,0,0,.3-.3v-2.4a.323.323,0,0,0-.3-.3Zm.9,2.4h-.6v-1.8h.6Z" transform="translate(-226.631 -252.136)" fill="#5e5e5e"/>
    <path id="Path_549" data-name="Path 549" d="M304.568,311.658a.323.323,0,0,0-.3.3v.9a.323.323,0,0,0,.3.3h.9a.3.3,0,0,0,0-.6h-.9v-.6C304.568,311.808,304.717,311.658,304.568,311.658Z" transform="translate(-293.557 -294.566)" fill="#5e5e5e"/>
    <path id="Path_550" data-name="Path 550" d="M303.1,153.411l-1.5-2.7a3.634,3.634,0,0,0,.9-1.5,3.53,3.53,0,0,0-.3-2.7,3.47,3.47,0,0,0-4.8-1.2,3.569,3.569,0,0,0-1.5,4.8,3.2,3.2,0,0,0,2.1,1.5,3.837,3.837,0,0,0,.9.3,4.971,4.971,0,0,0,.9-.3l1.5,2.7a1.13,1.13,0,0,0,.9.6c.175,0,.438.093.6,0a1.132,1.132,0,0,0,.6-.9C303.4,153.831,303.2,153.568,303.1,153.411Zm-4.8-2.4a2.661,2.661,0,0,1-1.8-1.2,3.067,3.067,0,0,1,.9-4.2,2.894,2.894,0,0,1,1.5-.3,3.157,3.157,0,0,1,2.7,1.5,2.559,2.559,0,0,1,.3,2.1,3.1,3.1,0,0,1-1.5,1.8A2.559,2.559,0,0,1,298.3,151.011Zm4.2,3.3c-.233.135-.465-.067-.6-.3l-1.5-2.4c.15-.061.157-.218.3-.3s.472-.2.6-.3l1.5,2.7c.043.075,0,.215,0,.3C302.8,154.185,302.656,154.224,302.5,154.311Z" transform="translate(-285.405 -133.612)" fill="#5e5e5e"/>
    <path id="Path_551" data-name="Path 551" d="M327.357,174.32a2.472,2.472,0,0,0-.3-1.8c-.064-.136-.164-.064-.3,0s-.064.164,0,.3a2.108,2.108,0,0,1,0,1.5,2.076,2.076,0,0,1-.9,1.2,2.095,2.095,0,0,1-2.1-3.6,2.292,2.292,0,0,1,2.4,0c.12.09.21.12.3,0s.12-.21,0-.3a2.856,2.856,0,0,0-3-.3,3.067,3.067,0,0,0-1.2,1.8,2.208,2.208,0,0,0,.3,1.8,2.435,2.435,0,0,0,1.5,1.2,2.029,2.029,0,0,0,.6,0,3.372,3.372,0,0,0,1.5-.3A2.685,2.685,0,0,0,327.357,174.32Z" transform="translate(-311.157 -158.967)" fill="#5e5e5e"/>
  </g>
</svg>
