<svg xmlns="http://www.w3.org/2000/svg" width="16" height="16" viewBox="0 0 16 16">
  <g id="sw-5" transform="translate(0.644 -0.057)">
    <path id="Path_641" data-name="Path 641" d="M210.5,121.993h.993a.5.5,0,1,0,0-.993H210.5a.5.5,0,0,0,0,.993Zm0,0" transform="translate(-202.688 -117.191)" fill="#5e5e5e"/>
    <path id="Path_642" data-name="Path 642" d="M210.5,181.993h.993a.5.5,0,1,0,0-.993H210.5a.5.5,0,0,0,0,.993Zm0,0" transform="translate(-202.688 -175.323)" fill="#5e5e5e"/>
    <path id="Path_643" data-name="Path 643" d="M211.489,241H210.5a.5.5,0,1,0,0,.993h.993a.5.5,0,1,0,0-.993Zm0,0" transform="translate(-202.688 -233.455)" fill="#5e5e5e"/>
    <path id="Path_644" data-name="Path 644" d="M360.5,121.993h.993a.5.5,0,1,0,0-.993H360.5a.5.5,0,1,0,0,.993Zm0,0" transform="translate(-347.615 -117.191)" fill="#5e5e5e"/>
    <path id="Path_645" data-name="Path 645" d="M360.5,181.993h.993a.5.5,0,1,0,0-.993H360.5a.5.5,0,1,0,0,.993Zm0,0" transform="translate(-347.615 -175.323)" fill="#5e5e5e"/>
    <path id="Path_646" data-name="Path 646" d="M361.489,241H360.5a.5.5,0,1,0,0,.993h.993a.5.5,0,1,0,0-.993Zm0,0" transform="translate(-347.615 -233.455)" fill="#5e5e5e"/>
    <path id="Path_647" data-name="Path 647" d="M60.5,121.993h.993a.5.5,0,0,0,0-.993H60.5a.5.5,0,0,0,0,.993Zm0,0" transform="translate(-57.759 -117.191)" fill="#5e5e5e"/>
    <path id="Path_648" data-name="Path 648" d="M1.785,16.057H14.928a1.334,1.334,0,0,0,1.429-1.333V1.39A1.334,1.334,0,0,0,14.928.057H11.785a1.126,1.126,0,0,0-.857.267A1.921,1.921,0,0,0,9.785.057H6.928A1.921,1.921,0,0,0,5.785.323,1.921,1.921,0,0,0,4.642.057H1.785A1.334,1.334,0,0,0,.356,1.39V14.723A1.334,1.334,0,0,0,1.785,16.057Zm13.429-4.8-4-.8V2.723h4ZM10.356,10.19l-4-.533V2.723h4ZM5.213,6.457l-4-.8V2.723h4Zm10,8.267c0,.258-.008.267-.286.267H1.785c-.277,0-.571-.008-.571-.267v-8l4,.8v2.4c0,.223.336.489.571.533.522.1,8.934,1.508,9.429,1.6ZM11.785.857h3.143c.277,0,.286.275.286.533v.533h-4V1.39A.609.609,0,0,1,11.785.857Zm-4.857,0H9.785a.609.609,0,0,1,.571.533v.533h-4V1.39A.609.609,0,0,1,6.928.857Zm-5.143,0H4.642a.609.609,0,0,1,.571.533v.533h-4V1.39A.609.609,0,0,1,1.785.857Zm0,0" transform="translate(-1)" fill="#5e5e5e"/>
    <path id="Path_649" data-name="Path 649" d="M63.475,361H60.5a.5.5,0,0,0-.5.5v2.019a.5.5,0,0,0,.5.5h2.979a.5.5,0,0,0,.5-.5V361.5A.5.5,0,0,0,63.475,361Zm-.5,2.019H60.993v-1.026h1.986Zm0,0" transform="translate(-57.759 -349.957)" fill="#5e5e5e"/>
  </g>
</svg>
